<svg xmlns="http://www.w3.org/2000/svg" xmlns:xlink="http://www.w3.org/1999/xlink" version="1.1" viewBox="264 -1320 2016 1704" width="2016px" height="1704px"><defs><style>@font-face{
    font-family:"DIN Next";
    font-weight: 400;
    src:url("https://whimsical.com/fonts/139e8e25-0eea-4cb4-a5d4-79048803e73d.eot?#iefix");
    src:url("https://whimsical.com/fonts/139e8e25-0eea-4cb4-a5d4-79048803e73d.eot?#iefix") format("eot"),url("https://whimsical.com/fonts/094b15e3-94bd-435b-a595-d40edfde661a.woff2") format("woff2"),url("https://whimsical.com/fonts/7e5fbe11-4858-4bd1-9ec6-a1d9f9d227aa.woff") format("woff"),url("https://whimsical.com/fonts/0f11eff9-9f05-46f5-9703-027c510065d7.ttf") format("truetype"),url("https://whimsical.com/fonts/48b61978-3f30-4274-823c-5cdcd1876918.svg#48b61978-3f30-4274-823c-5cdcd1876918") format("svg");
}
@font-face{
    font-family:"DIN Next";
    font-weight: 400;
    font-style: italic;
    src:url("https://whimsical.com/fonts/df24d5e8-5087-42fd-99b1-b16042d666c8.eot?#iefix");
    src:url("https://whimsical.com/fonts/df24d5e8-5087-42fd-99b1-b16042d666c8.eot?#iefix") format("eot"),url("https://whimsical.com/fonts/46251881-ffe9-4bfb-99c7-d6ce3bebaf3e.woff2") format("woff2"),url("https://whimsical.com/fonts/790ebbf2-62c5-4a32-946f-99d405f9243e.woff") format("woff"),url("https://whimsical.com/fonts/d28199e6-0f4a-42df-97f4-606701c6f75a.ttf") format("truetype"),url("https://whimsical.com/fonts/37a462c0-d86e-492c-b9ab-35e6bd417f6c.svg#37a462c0-d86e-492c-b9ab-35e6bd417f6c") format("svg");
}
@font-face{
    font-weight: 500;
    font-family:"DIN Next";
    src:url("https://whimsical.com/fonts/c5b058fc-55ce-4e06-a175-5c7d9a7e90f4.eot?#iefix");
    src:url("https://whimsical.com/fonts/c5b058fc-55ce-4e06-a175-5c7d9a7e90f4.eot?#iefix") format("eot"),url("https://whimsical.com/fonts/7b29ae40-30ff-4f99-a2b9-cde88669fa2f.woff2") format("woff2"),url("https://whimsical.com/fonts/bf73077c-e354-4562-a085-f4703eb1d653.woff") format("woff"),url("https://whimsical.com/fonts/0ffa6947-5317-4d07-b525-14d08a028821.ttf") format("truetype"),url("https://whimsical.com/fonts/9e423e45-5450-4991-a157-dbe6cf61eb4e.svg#9e423e45-5450-4991-a157-dbe6cf61eb4e") format("svg");
}
@font-face{
    font-family:"DIN Next";
    font-weight: 500;
    font-style: italic;
    src:url("https://whimsical.com/fonts/9897c008-fd65-48a4-afc7-36de2fea97b9.eot?#iefix");
    src:url("https://whimsical.com/fonts/9897c008-fd65-48a4-afc7-36de2fea97b9.eot?#iefix") format("eot"),url("https://whimsical.com/fonts/c7717981-647d-4b76-8817-33062e42d11f.woff2") format("woff2"),url("https://whimsical.com/fonts/b852cd4c-1255-40b1-a2be-73a9105b0155.woff") format("woff"),url("https://whimsical.com/fonts/821b00ad-e741-4e2d-af1a-85594367c8a2.ttf") format("truetype"),url("https://whimsical.com/fonts/d3e3b689-a6b0-45f2-b279-f5e194f87409.svg#d3e3b689-a6b0-45f2-b279-f5e194f87409") format("svg");
}
@font-face{
    font-weight: 700;
    font-family:"DIN Next";
    src:url("https://whimsical.com/fonts/81cd3b08-fd39-4ae3-8d05-9d24709eba84.eot?#iefix");
    src:url("https://whimsical.com/fonts/81cd3b08-fd39-4ae3-8d05-9d24709eba84.eot?#iefix") format("eot"),url("https://whimsical.com/fonts/31704504-4671-47a6-a61e-397f07410d91.woff2") format("woff2"),url("https://whimsical.com/fonts/b8a280da-481f-44a0-8d9c-1bc64bd7227c.woff") format("woff"),url("https://whimsical.com/fonts/276d122a-0fab-447b-9fc0-5d7fb0eafce2.ttf") format("truetype"),url("https://whimsical.com/fonts/8fb8273a-8213-4928-808b-b5bfaf3fd7e9.svg#8fb8273a-8213-4928-808b-b5bfaf3fd7e9") format("svg");
}
@font-face{
    font-family:"DIN Next";
    font-weight: 700;
    font-style: italic;
    src:url("https://whimsical.com/fonts/00cc6df3-ed32-4004-8dd8-1c576600a408.eot?#iefix");
    src:url("https://whimsical.com/fonts/00cc6df3-ed32-4004-8dd8-1c576600a408.eot?#iefix") format("eot"),url("https://whimsical.com/fonts/4132c4c8-680c-4d6d-9251-a2da38503bbd.woff2") format("woff2"),url("https://whimsical.com/fonts/366401fe-6df4-47be-8f55-8a411cff0dd2.woff") format("woff"),url("https://whimsical.com/fonts/dbe4f7ba-fc16-44a6-a577-571620e9edaf.ttf") format("truetype"),url("https://whimsical.com/fonts/f874edca-ee87-4ccf-8b1d-921fbc3c1c36.svg#f874edca-ee87-4ccf-8b1d-921fbc3c1c36") format("svg");
}

@font-face {
    font-family: 'PFDINMonoPro';
    src:url('https://whimsical.com/fonts/PFDINMonoPro-Regular.woff') format('woff');
    font-weight: 400;
}
@font-face {
    font-family: 'PFDINMonoPro';
    src:url('https://whimsical.com/fonts/PFDINMonoPro-Italic.woff') format('woff');
    font-style: italic;
    font-weight: 400;
}
@font-face {
    font-family: 'PFDINMonoPro';
    src:url('https://whimsical.com/fonts/PFDINMonoPro-Bold.woff') format('woff');
    font-weight: 700;
}
@font-face {
    font-family: 'PFDINMonoPro';
    src:url('https://whimsical.com/fonts/PFDINMonoPro-BoldItalic.woff') format('woff');
    font-style: italic;
    font-weight: 700;
}
* {-webkit-font-smoothing: auto; -moz-osx-font-smoothing: auto;}@media print { svg { width: 100%; height: 100%; } }</style><g><filter id="white-fill-shadow"><feDropShadow dx="0" dy="2" stdDeviation="6" flood-opacity="0.03" flood-color="#000000"></feDropShadow></filter><filter id="light-gray-fill-shadow"><feDropShadow dx="0" dy="2" stdDeviation="6" flood-opacity="0.09" flood-color="#000000"></feDropShadow></filter><filter id="yellow-fill-shadow"><feDropShadow dx="0" dy="2" stdDeviation="6" flood-opacity="0.12" flood-color="#000000"></feDropShadow></filter><filter id="fill-shadow"><feDropShadow dx="0" dy="2" stdDeviation="6" flood-opacity="0.16" flood-color="#000000"></feDropShadow></filter><filter id="frame-shadow"><feDropShadow dx="0" dy="3" stdDeviation="8" flood-opacity="0.06" flood-color="#000000"></feDropShadow></filter><filter id="button-shadow"><feDropShadow dx="0" dy="2" stdDeviation="6" flood-opacity="0.03" flood-color="#000000"></feDropShadow></filter><filter id="button-hover-shadow"><feDropShadow dx="0" dy="2" stdDeviation="6" flood-opacity="0.08" flood-color="#000000"></feDropShadow></filter><filter id="badge-shadow"><feDropShadow dx="0" dy="2" stdDeviation="6" flood-opacity="0.08" flood-color="#000000"></feDropShadow></filter></g></defs><g><rect x="264" y="-1320" width="2016" height="1704" fill="#FFFFFF" filter="url(#frame-shadow)"></rect><rect x="264" y="-1320" width="2016" height="1704" fill="#FFFFFF"></rect><svg x="264" y="-1320" width="2016" height="1704" viewBox="264 -1320 2016 1704"><g><g><path d="M396,-1212c143.5,278.83333 287,557.66667 559,740c272,182.33333 672.5,268.16667 1073,354" fill="none" stroke="#730FC3" stroke-linecap="round" stroke-linejoin="round" stroke-width="4"></path></g></g><g><g class="content"><g><g><g><g><g></g><text fill="#293845"><tspan x="1147" y="-396.5" font-family="DIN Next, sans-serif" font-size="36" font-style="normal" font-weight="normal">Ed25519 curve</tspan></text></g></g></g></g></g></g><g><g><g><g><rect width="290.5" height="125.00000000000001" x="429" y="-189" stroke="#E8833A" stroke-width="2" fill="#fae6d8"></rect></g><g><g><g><g transform="translate(450 -147) rotate(0 18 18)"><svg id="s95c1b964-1202-477e-b2c1-e413fa3075e4" width="36" height="36" viewBox="0 0 48 48" data-icon-name="analytics-88" data-icon-partition="g48-0" data-icon-color="#E8833A"><style>#s95c1b964-1202-477e-b2c1-e413fa3075e4 *[fill=&#x27;#444444&#x27;], #s95c1b964-1202-477e-b2c1-e413fa3075e4 *[fill=&#x27;#444&#x27;] {fill:#E8833A;}#s95c1b964-1202-477e-b2c1-e413fa3075e4 *[stroke=&#x27;#444444&#x27;], #s95c1b964-1202-477e-b2c1-e413fa3075e4 *[stroke=&#x27;#444&#x27;] {stroke:#E8833A;}</style><g><path d="M40,3H8c-2.761,0-5,2.239-5,5V40c0,2.761,2.239,5,5,5H40c2.761,0,5-2.239,5-5V8c0-2.761-2.239-5-5-5Zm0,22h-6.382l-4.718,9.447c-.246,.494-.847,.695-1.341,.449-.194-.097-.352-.254-.449-.449l-9-18.008-3.173,7.932c-.153,.383-.525,.632-.937,.629h-6c-.552,0-1-.448-1-1s.448-1,1-1h5.323l3.748-9.371c.146-.366,.493-.612,.887-.629,.396-.028,.769,.192,.937,.552l9.105,18.212,4.1-8.211c.17-.341,.519-.555,.9-.553h7c.552,0,1,.448,1,1s-.448,1-1,1Z" fill="#444"></path></g></svg></g></g></g><g><g class="content"><g><g><g><g><g></g><text fill="#293845"><tspan x="503" y="-141.5" font-family="DIN Next, sans-serif" font-size="18" font-style="normal" font-weight="normal">level: 7</tspan></text></g></g></g></g><g><g><g><g><g></g><text fill="#293845"><tspan x="503" y="-117.5" font-family="DIN Next, sans-serif" font-size="18" font-style="normal" font-weight="normal">victories: 8</tspan></text></g></g></g></g><g><g><g><g><g></g><text fill="#293845"><tspan x="503" y="-93.5" font-family="DIN Next, sans-serif" font-size="18" font-style="normal" font-weight="normal">losses: 2</tspan></text></g></g></g></g></g></g></g></g><g><g class="content"><g><g><g><g><g></g><text fill="#293845"><tspan x="430" y="-197.5" font-family="DIN Next, sans-serif" font-size="18" font-style="normal" font-weight="normal">PROGRAM DERIVED ADDRESS</tspan></text></g></g></g></g></g></g></g></g><g><g><g><g class="content"><g><g><g><g><g></g><text fill="#293845"><tspan x="737" y="-679.5" font-family="DIN Next, sans-serif" font-size="18" font-style="normal" font-weight="normal">ADDRESS</tspan></text></g></g></g></g></g></g><g><g><ellipse fill="#e3cff3" cx="717.5" cy="-684.5" rx="11" ry="11"></ellipse></g></g></g></g><g><g><g><g><g><g><g><g><rect width="246" height="160" x="491" y="-916" stroke="#730FC3" stroke-width="2" fill="#e3cff3"></rect></g></g><g><g class="content"><g><g><g><g><g></g><text fill="#293845"><tspan x="507" y="-886.5" font-family="DIN Next, sans-serif" font-size="18" font-style="normal" font-weight="normal">SPACE BATTLE PROGRAM</tspan></text></g></g></g></g></g></g></g></g><g><g><g transform="translate(507.68333333333334 -870.45) rotate(0 21.45 21.45)"><svg id="s7bb6f870-2f7e-4af9-ac3f-ef29591215c6" width="42.9" height="42.9" viewBox="0 0 12 12" data-icon-name="cogwheel" data-icon-partition="g12-1" data-icon-color="#730FC3"><style>#s7bb6f870-2f7e-4af9-ac3f-ef29591215c6 *[fill=&#x27;#444444&#x27;], #s7bb6f870-2f7e-4af9-ac3f-ef29591215c6 *[fill=&#x27;#444&#x27;] {fill:#730FC3;}#s7bb6f870-2f7e-4af9-ac3f-ef29591215c6 *[stroke=&#x27;#444444&#x27;], #s7bb6f870-2f7e-4af9-ac3f-ef29591215c6 *[stroke=&#x27;#444&#x27;] {stroke:#730FC3;}</style><g><path d="M11.555,5l-1.486-.165a4.223,4.223,0,0,0-.37-.893l.934-1.168a.5.5,0,0,0-.037-.666L9.889,1.4a.5.5,0,0,0-.666-.037L8.055,2.3a4.223,4.223,0,0,0-.893-.37L7,.445A.5.5,0,0,0,6.5,0h-1A.5.5,0,0,0,5,.445L4.838,1.931a4.223,4.223,0,0,0-.893.37L2.777,1.367a.5.5,0,0,0-.666.037L1.4,2.111a.5.5,0,0,0-.037.666L2.3,3.945a4.223,4.223,0,0,0-.37.893L.445,5A.5.5,0,0,0,0,5.5v1A.5.5,0,0,0,.445,7l1.486.165a4.223,4.223,0,0,0,.37.893L1.367,9.223a.5.5,0,0,0,.037.666l.707.707a.5.5,0,0,0,.666.037L3.945,9.7a4.223,4.223,0,0,0,.893.37L5,11.555A.5.5,0,0,0,5.5,12h1a.5.5,0,0,0,.5-.445l.165-1.486a4.223,4.223,0,0,0,.893-.37l1.168.934a.5.5,0,0,0,.666-.037l.707-.707a.5.5,0,0,0,.037-.666L9.7,8.055a4.223,4.223,0,0,0,.37-.893L11.555,7A.5.5,0,0,0,12,6.5v-1A.5.5,0,0,0,11.555,5ZM6,8A2,2,0,1,1,8,6,2,2,0,0,1,6,8Z" fill="#444"></path></g></svg></g></g></g><g><g class="content"><g><g><g><g><g></g><text fill="#293845"><tspan x="565" y="-852.5" font-family="DIN Next, sans-serif" font-size="18" font-style="normal" font-weight="normal">Move</tspan></text></g></g></g></g><g><g><g><g><g></g><text fill="#293845"><tspan x="565" y="-828.5" font-family="DIN Next, sans-serif" font-size="18" font-style="normal" font-weight="normal">Engage</tspan></text></g></g></g></g><g><g><g><g><g></g><text fill="#293845"><tspan x="565" y="-804.5" font-family="DIN Next, sans-serif" font-size="18" font-style="normal" font-weight="normal">Warp</tspan></text></g></g></g></g></g></g></g></g></g></g><g><g><rect width="240" height="104.5" x="708.5" y="-660.5" stroke="#BD34D1" stroke-width="2" fill="#f2d6f6"></rect></g><g><g><g class="content"><g><g><g><g><g></g><text fill="#293845"><tspan x="773" y="-583.5" font-family="DIN Next, sans-serif" font-size="27" font-style="normal" font-weight="normal">◎15 SOL</tspan></text></g></g></g></g></g></g></g></g><g><g class="content"><g><g><g><g><g></g><text fill="#293845"><tspan x="726" y="-625.5" font-family="DIN Next, sans-serif" font-size="18" font-style="normal" font-weight="normal">Alice’s wallet</tspan></text></g></g></g></g></g></g><g><g><g transform="translate(720.5 -610.5) rotate(0 18 18)"><svg id="sa544cf98-ea88-4901-b957-ebfb8bab399e" width="36" height="36" viewBox="0 0 48 48" data-icon-name="single-02" data-icon-partition="g48-8" data-icon-color="#BD34D1"><style>#sa544cf98-ea88-4901-b957-ebfb8bab399e *[fill=&#x27;#444444&#x27;], #sa544cf98-ea88-4901-b957-ebfb8bab399e *[fill=&#x27;#444&#x27;] {fill:#BD34D1;}#sa544cf98-ea88-4901-b957-ebfb8bab399e *[stroke=&#x27;#444444&#x27;], #sa544cf98-ea88-4901-b957-ebfb8bab399e *[stroke=&#x27;#444&#x27;] {stroke:#BD34D1;}</style><g><path fill="#444444" d="M30,29H18c-7.168,0-13,5.832-13,13v2c0,0.435,0.281,0.82,0.695,0.953 C5.957,45.036,12.229,47,24,47s18.043-1.964,18.305-2.047C42.719,44.82,43,44.435,43,44v-2C43,34.832,37.168,29,30,29z"></path><path data-color="color-2" fill="#444444" d="M24,25c6.195,0,11-6.988,11-13c0-6.065-4.935-11-11-11S13,5.935,13,12C13,18.012,17.805,25,24,25z"></path></g></svg></g></g></g><g><g><g><g class="content"><g><g><g><g><g></g><text fill="#293845"><tspan x="565" y="-929.5" font-family="DIN Next, sans-serif" font-size="18" font-style="normal" font-weight="normal">ADDRESS</tspan></text></g></g></g></g></g></g><g><g><ellipse stroke="#730FC3" stroke-width="2" fill="#e3cff3" cx="545.5" cy="-934.5" rx="11" ry="11"></ellipse></g></g></g></g><g><g><path d="M808,-548v169M808,-351v66c0,8.28426 -6.71574,15 -15,15h-75" fill="none" stroke="#C3CFD9" stroke-linecap="round" stroke-linejoin="round" stroke-width="4"></path><polygon points="721.0921,-264.45905 714,-270 721.0921,-275.54095" fill="#C3CFD9" stroke="#C3CFD9" stroke-width="2" stroke-linecap="round" stroke-linejoin="round"></polygon><text y="-377" font-style="normal" font-size="18" font-weight="normal" fill="#C3CFD9" width="37" xml:space="preserve" x="789.5" font-family="DIN Next, sans-serif" height="24"><tspan x="808" y="-359" text-anchor="middle" style="white-space:pre;">seed</tspan></text></g></g><g><g class="content"><g><g><g><g><g></g><text fill="#293845"><tspan x="737" y="-679.5" font-family="DIN Next, sans-serif" font-size="18" font-style="normal" font-weight="normal">ADDRESS</tspan></text></g></g></g></g></g></g><g><g><ellipse stroke="#730FC3" stroke-width="2" fill="#e3cff3" cx="717.5" cy="-684.5" rx="11" ry="11"></ellipse></g></g><g><g><rect width="240" height="104.5" x="1579" y="-181" stroke="#BD34D1" stroke-width="2" fill="#f2d6f6"></rect></g><g><g><g class="content"><g><g><g><g><g></g><text fill="#293845"><tspan x="1644" y="-103.5" font-family="DIN Next, sans-serif" font-size="27" font-style="normal" font-weight="normal">◎27 SOL</tspan></text></g></g></g></g></g></g><g><g class="content"><g><g><g><g><g></g><text fill="#293845"><tspan x="1596" y="-146.5" font-family="DIN Next, sans-serif" font-size="18" font-style="normal" font-weight="normal">Bob’s wallet</tspan></text></g></g></g></g></g></g><g><g><g transform="translate(1591 -131) rotate(0 18 18)"><svg id="sc6e4fe9d-28ab-4ad9-9d26-bf07650fe61f" width="36" height="36" viewBox="0 0 48 48" data-icon-name="single-02" data-icon-partition="g48-8" data-icon-color="#BD34D1"><style>#sc6e4fe9d-28ab-4ad9-9d26-bf07650fe61f *[fill=&#x27;#444444&#x27;], #sc6e4fe9d-28ab-4ad9-9d26-bf07650fe61f *[fill=&#x27;#444&#x27;] {fill:#BD34D1;}#sc6e4fe9d-28ab-4ad9-9d26-bf07650fe61f *[stroke=&#x27;#444444&#x27;], #sc6e4fe9d-28ab-4ad9-9d26-bf07650fe61f *[stroke=&#x27;#444&#x27;] {stroke:#BD34D1;}</style><g><path fill="#444444" d="M30,29H18c-7.168,0-13,5.832-13,13v2c0,0.435,0.281,0.82,0.695,0.953 C5.957,45.036,12.229,47,24,47s18.043-1.964,18.305-2.047C42.719,44.82,43,44.435,43,44v-2C43,34.832,37.168,29,30,29z"></path><path data-color="color-2" fill="#444444" d="M24,25c6.195,0,11-6.988,11-13c0-6.065-4.935-11-11-11S13,5.935,13,12C13,18.012,17.805,25,24,25z"></path></g></svg></g></g></g></g></g><g><g><g><g class="content"><g><g><g><g><g></g><text fill="#293845"><tspan x="1653" y="-197.5" font-family="DIN Next, sans-serif" font-size="18" font-style="normal" font-weight="normal">ADDRESS</tspan></text></g></g></g></g></g></g><g><g><ellipse stroke="#730FC3" stroke-width="2" fill="#e3cff3" cx="1633.5" cy="-202.5" rx="11" ry="11"></ellipse></g></g></g></g><g><g><g><g><rect width="290.5" height="125.00000000000001" x="1400" y="171" stroke="#E8833A" stroke-width="2" fill="#fae6d8"></rect></g><g><g><g><g transform="translate(1413 209) rotate(0 18 18)"><svg id="s2f306dc1-bc8f-4ea7-81cc-5824deef3606" width="36" height="36" viewBox="0 0 48 48" data-icon-name="analytics-88" data-icon-partition="g48-0" data-icon-color="#E8833A"><style>#s2f306dc1-bc8f-4ea7-81cc-5824deef3606 *[fill=&#x27;#444444&#x27;], #s2f306dc1-bc8f-4ea7-81cc-5824deef3606 *[fill=&#x27;#444&#x27;] {fill:#E8833A;}#s2f306dc1-bc8f-4ea7-81cc-5824deef3606 *[stroke=&#x27;#444444&#x27;], #s2f306dc1-bc8f-4ea7-81cc-5824deef3606 *[stroke=&#x27;#444&#x27;] {stroke:#E8833A;}</style><g><path d="M40,3H8c-2.761,0-5,2.239-5,5V40c0,2.761,2.239,5,5,5H40c2.761,0,5-2.239,5-5V8c0-2.761-2.239-5-5-5Zm0,22h-6.382l-4.718,9.447c-.246,.494-.847,.695-1.341,.449-.194-.097-.352-.254-.449-.449l-9-18.008-3.173,7.932c-.153,.383-.525,.632-.937,.629h-6c-.552,0-1-.448-1-1s.448-1,1-1h5.323l3.748-9.371c.146-.366,.493-.612,.887-.629,.396-.028,.769,.192,.937,.552l9.105,18.212,4.1-8.211c.17-.341,.519-.555,.9-.553h7c.552,0,1,.448,1,1s-.448,1-1,1Z" fill="#444"></path></g></svg></g></g></g><g><g class="content"><g><g><g><g><g></g><text fill="#293845"><tspan x="1474" y="218.5" font-family="DIN Next, sans-serif" font-size="18" font-style="normal" font-weight="normal">level: 3</tspan></text></g></g></g></g><g><g><g><g><g></g><text fill="#293845"><tspan x="1474" y="242.5" font-family="DIN Next, sans-serif" font-size="18" font-style="normal" font-weight="normal">victories: 4</tspan></text></g></g></g></g><g><g><g><g><g></g><text fill="#293845"><tspan x="1474" y="266.5" font-family="DIN Next, sans-serif" font-size="18" font-style="normal" font-weight="normal">losses: 0</tspan></text></g></g></g></g></g></g></g></g><g><g class="content"><g><g><g><g><g></g><text fill="#293845"><tspan x="1401" y="162.5" font-family="DIN Next, sans-serif" font-size="18" font-style="normal" font-weight="normal">PROGRAM DERIVED ADDRESS</tspan></text></g></g></g></g></g></g></g></g><g><g><path d="M1564,-128.75h-9.5c-5.2467,0 -9.5,4.2533 -9.5,9.5v61.25M1545,-30v82" fill="none" stroke="#C3CFD9" stroke-linecap="round" stroke-linejoin="round" stroke-width="4"></path><polygon points="1550.54095,48.9079 1545,56 1539.45905,48.9079" fill="#C3CFD9" stroke="#C3CFD9" stroke-width="2" stroke-linecap="round" stroke-linejoin="round"></polygon><text y="-56" font-style="normal" font-size="18" font-weight="normal" fill="#C3CFD9" width="37" xml:space="preserve" x="1526.5" font-family="DIN Next, sans-serif" height="24"><tspan x="1545" y="-38" text-anchor="middle" style="white-space:pre;">seed</tspan></text></g></g><g><g class="content"><g><g><g><g><g></g><text fill="#293845"><tspan x="1400" y="329.5" font-family="DIN Next, sans-serif" font-size="18" font-style="normal" font-weight="normal">Bob’s player statistics</tspan></text></g></g></g></g></g></g><g><g class="content"><g><g><g><g><g></g><text fill="#293845"><tspan x="424" y="-33.5" font-family="DIN Next, sans-serif" font-size="18" font-style="normal" font-weight="normal">Alice’s player statistics</tspan></text></g></g></g></g></g></g><g><g class="content"><g><g><g><g><g></g><text fill="#293845"><tspan x="1608.8203125" y="-1200" font-family="DIN Next, sans-serif" font-size="60" font-style="normal" font-weight="normal">Space battle program</tspan></text></g></g></g></g></g></g><g><g><rect x="458" y="-288" width="233" height="36" rx="3" ry="3" fill="#ffffff"></rect><rect y="-288" rx="3" stroke="#C3CFD9" fill="none" stroke-linejoin="round" width="233" stroke-linecap="round" stroke-width="2" x="458" ry="3" height="36"></rect><g class="content"><g><g><g><g><g></g><text fill="#293845"><tspan x="488.46044921875" y="-263.5" font-family="DIN Next, sans-serif" font-size="18" font-style="normal" font-weight="normal">findProgramAddress()</tspan></text></g></g></g></g></g></g></g><g><g><rect x="1429" y="72" width="233" height="36" rx="3" ry="3" fill="#ffffff"></rect><rect y="72" rx="3" stroke="#C3CFD9" fill="none" stroke-linejoin="round" width="233" stroke-linecap="round" stroke-width="2" x="1429" ry="3" height="36"></rect><g class="content"><g><g><g><g><g></g><text fill="#293845"><tspan x="1459.46044921875" y="96.5" font-family="DIN Next, sans-serif" font-size="18" font-style="normal" font-weight="normal">findProgramAddress()</tspan></text></g></g></g></g></g></g></g><g><g><path d="M618,-748v113c0,8.28426 -6.71574,15 -15,15h-14c-8.28426,0 -15,6.71574 -15,15v57M574,-520v228" fill="none" stroke="#C3CFD9" stroke-linecap="round" stroke-linejoin="round" stroke-width="4"></path><polygon points="579.54095,-295.0921 574,-288 568.45905,-295.0921" fill="#C3CFD9" stroke="#C3CFD9" stroke-width="2" stroke-linecap="round" stroke-linejoin="round"></polygon><text y="-546" font-style="normal" font-size="18" font-weight="normal" fill="#C3CFD9" width="82" xml:space="preserve" x="533" font-family="DIN Next, sans-serif" height="24"><tspan x="574" y="-528" text-anchor="middle" style="white-space:pre;">programId</tspan></text></g></g><g><g><line stroke="#C3CFD9" fill="none" stroke-linejoin="round" y1="-244" stroke-linecap="round" stroke-width="4" x1="564" y2="-228" x2="564"></line><polygon points="569.54095,-231.0921 564,-224 558.45905,-231.0921" fill="#C3CFD9" stroke="#C3CFD9" stroke-width="2" stroke-linecap="round" stroke-linejoin="round"></polygon></g></g><g><g><path d="M483,-836h-144c-8.28426,0 -15,6.71574 -15,15v893M374,90h1027" fill="none" stroke="#C3CFD9" stroke-linecap="round" stroke-linejoin="round" stroke-width="4"></path><polygon points="1397.9079,84.45905 1405,90 1397.9079,95.54095" fill="#C3CFD9" stroke="#C3CFD9" stroke-width="2" stroke-linecap="round" stroke-linejoin="round"></polygon><text y="74" font-style="normal" font-size="18" font-weight="normal" fill="#C3CFD9" width="82" xml:space="preserve" x="288" font-family="DIN Next, sans-serif" height="24"><tspan x="329" y="92" text-anchor="middle" style="white-space:pre;">programId</tspan></text></g></g><g><g><line stroke="#C3CFD9" fill="none" stroke-linejoin="round" y1="118.99999999999997" stroke-linecap="round" stroke-width="4" x1="1530" y2="131.99999999999991" x2="1530"></line><polygon points="1535.54095,128.9079 1530,136 1524.45905,128.9079" fill="#C3CFD9" stroke="#C3CFD9" stroke-width="2" stroke-linecap="round" stroke-linejoin="round"></polygon></g></g></svg><g></g></g></svg>