<svg xmlns="http://www.w3.org/2000/svg" xmlns:xlink="http://www.w3.org/1999/xlink" version="1.1" viewBox="264 -1320 2016 1704" width="2016px" height="1704px"><defs><style>@font-face{
    font-family:"DIN Next";
    font-weight: 400;
    src:url("https://whimsical.com/fonts/139e8e25-0eea-4cb4-a5d4-79048803e73d.eot?#iefix");
    src:url("https://whimsical.com/fonts/139e8e25-0eea-4cb4-a5d4-79048803e73d.eot?#iefix") format("eot"),url("https://whimsical.com/fonts/094b15e3-94bd-435b-a595-d40edfde661a.woff2") format("woff2"),url("https://whimsical.com/fonts/7e5fbe11-4858-4bd1-9ec6-a1d9f9d227aa.woff") format("woff"),url("https://whimsical.com/fonts/0f11eff9-9f05-46f5-9703-027c510065d7.ttf") format("truetype"),url("https://whimsical.com/fonts/48b61978-3f30-4274-823c-5cdcd1876918.svg#48b61978-3f30-4274-823c-5cdcd1876918") format("svg");
}
@font-face{
    font-family:"DIN Next";
    font-weight: 400;
    font-style: italic;
    src:url("https://whimsical.com/fonts/df24d5e8-5087-42fd-99b1-b16042d666c8.eot?#iefix");
    src:url("https://whimsical.com/fonts/df24d5e8-5087-42fd-99b1-b16042d666c8.eot?#iefix") format("eot"),url("https://whimsical.com/fonts/46251881-ffe9-4bfb-99c7-d6ce3bebaf3e.woff2") format("woff2"),url("https://whimsical.com/fonts/790ebbf2-62c5-4a32-946f-99d405f9243e.woff") format("woff"),url("https://whimsical.com/fonts/d28199e6-0f4a-42df-97f4-606701c6f75a.ttf") format("truetype"),url("https://whimsical.com/fonts/37a462c0-d86e-492c-b9ab-35e6bd417f6c.svg#37a462c0-d86e-492c-b9ab-35e6bd417f6c") format("svg");
}
@font-face{
    font-weight: 500;
    font-family:"DIN Next";
    src:url("https://whimsical.com/fonts/c5b058fc-55ce-4e06-a175-5c7d9a7e90f4.eot?#iefix");
    src:url("https://whimsical.com/fonts/c5b058fc-55ce-4e06-a175-5c7d9a7e90f4.eot?#iefix") format("eot"),url("https://whimsical.com/fonts/7b29ae40-30ff-4f99-a2b9-cde88669fa2f.woff2") format("woff2"),url("https://whimsical.com/fonts/bf73077c-e354-4562-a085-f4703eb1d653.woff") format("woff"),url("https://whimsical.com/fonts/0ffa6947-5317-4d07-b525-14d08a028821.ttf") format("truetype"),url("https://whimsical.com/fonts/9e423e45-5450-4991-a157-dbe6cf61eb4e.svg#9e423e45-5450-4991-a157-dbe6cf61eb4e") format("svg");
}
@font-face{
    font-family:"DIN Next";
    font-weight: 500;
    font-style: italic;
    src:url("https://whimsical.com/fonts/9897c008-fd65-48a4-afc7-36de2fea97b9.eot?#iefix");
    src:url("https://whimsical.com/fonts/9897c008-fd65-48a4-afc7-36de2fea97b9.eot?#iefix") format("eot"),url("https://whimsical.com/fonts/c7717981-647d-4b76-8817-33062e42d11f.woff2") format("woff2"),url("https://whimsical.com/fonts/b852cd4c-1255-40b1-a2be-73a9105b0155.woff") format("woff"),url("https://whimsical.com/fonts/821b00ad-e741-4e2d-af1a-85594367c8a2.ttf") format("truetype"),url("https://whimsical.com/fonts/d3e3b689-a6b0-45f2-b279-f5e194f87409.svg#d3e3b689-a6b0-45f2-b279-f5e194f87409") format("svg");
}
@font-face{
    font-weight: 700;
    font-family:"DIN Next";
    src:url("https://whimsical.com/fonts/81cd3b08-fd39-4ae3-8d05-9d24709eba84.eot?#iefix");
    src:url("https://whimsical.com/fonts/81cd3b08-fd39-4ae3-8d05-9d24709eba84.eot?#iefix") format("eot"),url("https://whimsical.com/fonts/31704504-4671-47a6-a61e-397f07410d91.woff2") format("woff2"),url("https://whimsical.com/fonts/b8a280da-481f-44a0-8d9c-1bc64bd7227c.woff") format("woff"),url("https://whimsical.com/fonts/276d122a-0fab-447b-9fc0-5d7fb0eafce2.ttf") format("truetype"),url("https://whimsical.com/fonts/8fb8273a-8213-4928-808b-b5bfaf3fd7e9.svg#8fb8273a-8213-4928-808b-b5bfaf3fd7e9") format("svg");
}
@font-face{
    font-family:"DIN Next";
    font-weight: 700;
    font-style: italic;
    src:url("https://whimsical.com/fonts/00cc6df3-ed32-4004-8dd8-1c576600a408.eot?#iefix");
    src:url("https://whimsical.com/fonts/00cc6df3-ed32-4004-8dd8-1c576600a408.eot?#iefix") format("eot"),url("https://whimsical.com/fonts/4132c4c8-680c-4d6d-9251-a2da38503bbd.woff2") format("woff2"),url("https://whimsical.com/fonts/366401fe-6df4-47be-8f55-8a411cff0dd2.woff") format("woff"),url("https://whimsical.com/fonts/dbe4f7ba-fc16-44a6-a577-571620e9edaf.ttf") format("truetype"),url("https://whimsical.com/fonts/f874edca-ee87-4ccf-8b1d-921fbc3c1c36.svg#f874edca-ee87-4ccf-8b1d-921fbc3c1c36") format("svg");
}

@font-face {
    font-family: 'PFDINMonoPro';
    src:url('https://whimsical.com/fonts/PFDINMonoPro-Regular.woff') format('woff');
    font-weight: 400;
}
@font-face {
    font-family: 'PFDINMonoPro';
    src:url('https://whimsical.com/fonts/PFDINMonoPro-Italic.woff') format('woff');
    font-style: italic;
    font-weight: 400;
}
@font-face {
    font-family: 'PFDINMonoPro';
    src:url('https://whimsical.com/fonts/PFDINMonoPro-Bold.woff') format('woff');
    font-weight: 700;
}
@font-face {
    font-family: 'PFDINMonoPro';
    src:url('https://whimsical.com/fonts/PFDINMonoPro-BoldItalic.woff') format('woff');
    font-style: italic;
    font-weight: 700;
}
* {-webkit-font-smoothing: auto; -moz-osx-font-smoothing: auto;}@media print { svg { width: 100%; height: 100%; } }</style><g><filter id="white-fill-shadow"><feDropShadow dx="0" dy="2" stdDeviation="6" flood-opacity="0.03" flood-color="#000000"></feDropShadow></filter><filter id="light-gray-fill-shadow"><feDropShadow dx="0" dy="2" stdDeviation="6" flood-opacity="0.09" flood-color="#000000"></feDropShadow></filter><filter id="yellow-fill-shadow"><feDropShadow dx="0" dy="2" stdDeviation="6" flood-opacity="0.12" flood-color="#000000"></feDropShadow></filter><filter id="fill-shadow"><feDropShadow dx="0" dy="2" stdDeviation="6" flood-opacity="0.16" flood-color="#000000"></feDropShadow></filter><filter id="frame-shadow"><feDropShadow dx="0" dy="3" stdDeviation="8" flood-opacity="0.06" flood-color="#000000"></feDropShadow></filter><filter id="button-shadow"><feDropShadow dx="0" dy="2" stdDeviation="6" flood-opacity="0.03" flood-color="#000000"></feDropShadow></filter><filter id="button-hover-shadow"><feDropShadow dx="0" dy="2" stdDeviation="6" flood-opacity="0.08" flood-color="#000000"></feDropShadow></filter><filter id="badge-shadow"><feDropShadow dx="0" dy="2" stdDeviation="6" flood-opacity="0.08" flood-color="#000000"></feDropShadow></filter></g></defs><g><rect x="264" y="-1320" width="2016" height="1704" fill="#FFFFFF" filter="url(#frame-shadow)"></rect><rect x="264" y="-1320" width="2016" height="1704" fill="#FFFFFF"></rect><svg x="264" y="-1320" width="2016" height="1704" viewBox="264 -1320 2016 1704"><g><g><path d="M396,-1212c143.5,278.83333 287,557.66667 559,740c272,182.33333 672.5,268.16667 1073,354" fill="none" stroke="#730FC3" stroke-linecap="round" stroke-linejoin="round" stroke-width="4"></path></g></g><g><g class="content"><g><g><g><g><g></g><text fill="#293845"><tspan x="1188" y="-383.5" font-family="DIN Next, sans-serif" font-size="36" font-style="normal" font-weight="normal">Ed25519 curve</tspan></text></g></g></g></g></g></g><g><g><g><g><rect width="290.5" height="125.00000000000001" x="593" y="-253" stroke="#E8833A" stroke-width="2" fill="#fae6d8"></rect></g><g><g><g><g transform="translate(614 -211) rotate(0 18 18)"><svg id="sb0d6df0d-7575-4641-ba74-2da31e043712" width="36" height="36" viewBox="0 0 48 48" data-icon-name="hash-mark" data-icon-partition="g48-13" data-icon-color="#FFFFFF"><style>#sb0d6df0d-7575-4641-ba74-2da31e043712 *[fill=&#x27;#444444&#x27;], #sb0d6df0d-7575-4641-ba74-2da31e043712 *[fill=&#x27;#444&#x27;] {fill:#FFFFFF;}#sb0d6df0d-7575-4641-ba74-2da31e043712 *[stroke=&#x27;#444444&#x27;], #sb0d6df0d-7575-4641-ba74-2da31e043712 *[stroke=&#x27;#444&#x27;] {stroke:#FFFFFF;}</style><g><path d="M43,19V14H36.028L37.9,1.5H32.847L30.972,14H20.028L21.9,1.5H16.847L14.972,14H7v5h7.222l-1.5,10H5v5h6.973L10.1,46.5h5.055L17.028,34H27.972L26.1,46.5h5.056L33.028,34H41V29H33.778l1.5-10ZM28.722,29H17.778l1.5-10H30.222Z" fill="#444"></path></g></svg></g></g></g><g><g class="content"><g><g><g><g><g></g><text fill="#293845"><tspan x="671" y="-177.5" font-family="DIN Next, sans-serif" font-size="27" font-style="normal" font-weight="normal">Counter: 126</tspan></text></g></g></g></g></g></g></g></g><g><g class="content"><g><g><g><g><g></g><text fill="#293845"><tspan x="594" y="-261.5" font-family="DIN Next, sans-serif" font-size="18" font-style="normal" font-weight="normal">PROGRAM DERIVED ADDRESS</tspan></text></g></g></g></g></g></g></g></g><g><g><g><g class="content"><g><g><g><g><g></g><text fill="#293845"><tspan x="737" y="-679.5" font-family="DIN Next, sans-serif" font-size="18" font-style="normal" font-weight="normal">ADDRESS</tspan></text></g></g></g></g></g></g><g><g><ellipse fill="#e3cff3" cx="717.5" cy="-684.5" rx="11" ry="11"></ellipse></g></g></g></g><g><g><g><g><g><g><g><g><rect width="246" height="160" x="491" y="-916" stroke="#730FC3" stroke-width="2" fill="#e3cff3"></rect></g></g><g><g class="content"><g><g><g><g><g></g><text fill="#293845"><tspan x="507" y="-886.5" font-family="DIN Next, sans-serif" font-size="18" font-style="normal" font-weight="normal">Ping counter program</tspan></text></g></g></g></g></g></g></g></g><g><g><g transform="translate(507.68333333333334 -870.45) rotate(0 21.45 21.45)"><svg id="s2bf03e19-6d14-4cd1-b043-63516e6a7472" width="42.9" height="42.9" viewBox="0 0 12 12" data-icon-name="cogwheel" data-icon-partition="g12-1" data-icon-color="#730FC3"><style>#s2bf03e19-6d14-4cd1-b043-63516e6a7472 *[fill=&#x27;#444444&#x27;], #s2bf03e19-6d14-4cd1-b043-63516e6a7472 *[fill=&#x27;#444&#x27;] {fill:#730FC3;}#s2bf03e19-6d14-4cd1-b043-63516e6a7472 *[stroke=&#x27;#444444&#x27;], #s2bf03e19-6d14-4cd1-b043-63516e6a7472 *[stroke=&#x27;#444&#x27;] {stroke:#730FC3;}</style><g><path d="M11.555,5l-1.486-.165a4.223,4.223,0,0,0-.37-.893l.934-1.168a.5.5,0,0,0-.037-.666L9.889,1.4a.5.5,0,0,0-.666-.037L8.055,2.3a4.223,4.223,0,0,0-.893-.37L7,.445A.5.5,0,0,0,6.5,0h-1A.5.5,0,0,0,5,.445L4.838,1.931a4.223,4.223,0,0,0-.893.37L2.777,1.367a.5.5,0,0,0-.666.037L1.4,2.111a.5.5,0,0,0-.037.666L2.3,3.945a4.223,4.223,0,0,0-.37.893L.445,5A.5.5,0,0,0,0,5.5v1A.5.5,0,0,0,.445,7l1.486.165a4.223,4.223,0,0,0,.37.893L1.367,9.223a.5.5,0,0,0,.037.666l.707.707a.5.5,0,0,0,.666.037L3.945,9.7a4.223,4.223,0,0,0,.893.37L5,11.555A.5.5,0,0,0,5.5,12h1a.5.5,0,0,0,.5-.445l.165-1.486a4.223,4.223,0,0,0,.893-.37l1.168.934a.5.5,0,0,0,.666-.037l.707-.707a.5.5,0,0,0,.037-.666L9.7,8.055a4.223,4.223,0,0,0,.37-.893L11.555,7A.5.5,0,0,0,12,6.5v-1A.5.5,0,0,0,11.555,5ZM6,8A2,2,0,1,1,8,6,2,2,0,0,1,6,8Z" fill="#444"></path></g></svg></g></g></g><g><g class="content"><g><g><g><g><g></g><text fill="#293845"><tspan x="565" y="-852.5" font-family="DIN Next, sans-serif" font-size="18" font-style="normal" font-weight="normal">Increment</tspan></text></g></g></g></g></g></g></g></g></g></g><g><g><rect width="240" height="104.5" x="708.5" y="-660.5" stroke="#BD34D1" stroke-width="2" fill="#f2d6f6"></rect></g><g><g><g class="content"><g><g><g><g><g></g><text fill="#293845"><tspan x="774" y="-583.5" font-family="DIN Next, sans-serif" font-size="27" font-style="normal" font-weight="normal">◎15 SOL</tspan></text></g></g></g></g></g></g></g></g><g><g class="content"><g><g><g><g><g></g><text fill="#293845"><tspan x="726" y="-625.5" font-family="DIN Next, sans-serif" font-size="18" font-style="normal" font-weight="normal">Alice’s wallet</tspan></text></g></g></g></g></g></g><g><g><g transform="translate(720.5 -610.5) rotate(0 18 18)"><svg id="saf8945e8-357b-480a-94ec-c2e8c39da8d9" width="36" height="36" viewBox="0 0 48 48" data-icon-name="single-02" data-icon-partition="g48-8" data-icon-color="#BD34D1"><style>#saf8945e8-357b-480a-94ec-c2e8c39da8d9 *[fill=&#x27;#444444&#x27;], #saf8945e8-357b-480a-94ec-c2e8c39da8d9 *[fill=&#x27;#444&#x27;] {fill:#BD34D1;}#saf8945e8-357b-480a-94ec-c2e8c39da8d9 *[stroke=&#x27;#444444&#x27;], #saf8945e8-357b-480a-94ec-c2e8c39da8d9 *[stroke=&#x27;#444&#x27;] {stroke:#BD34D1;}</style><g><path fill="#444444" d="M30,29H18c-7.168,0-13,5.832-13,13v2c0,0.435,0.281,0.82,0.695,0.953 C5.957,45.036,12.229,47,24,47s18.043-1.964,18.305-2.047C42.719,44.82,43,44.435,43,44v-2C43,34.832,37.168,29,30,29z"></path><path data-color="color-2" fill="#444444" d="M24,25c6.195,0,11-6.988,11-13c0-6.065-4.935-11-11-11S13,5.935,13,12C13,18.012,17.805,25,24,25z"></path></g></svg></g></g></g><g><g><g><g class="content"><g><g><g><g><g></g><text fill="#293845"><tspan x="565" y="-929.5" font-family="DIN Next, sans-serif" font-size="18" font-style="normal" font-weight="normal">ADDRESS</tspan></text></g></g></g></g></g></g><g><g><ellipse stroke="#730FC3" stroke-width="2" fill="#e3cff3" cx="545.5" cy="-934.5" rx="11" ry="11"></ellipse></g></g></g></g><g><g><path d="M491,-548v147c0,8.28426 6.71574,15 15,15h7.5M558.5,-386h145.5c7.17969,0 13,5.82031 13,13v9" fill="none" stroke="#C3CFD9" stroke-linecap="round" stroke-linejoin="round" stroke-width="4"></path><polygon points="722.54095,-367.0921 717,-360 711.45905,-367.0921" fill="#C3CFD9" stroke="#C3CFD9" stroke-width="2" stroke-linecap="round" stroke-linejoin="round"></polygon><text y="-398" font-style="normal" font-size="18" font-weight="normal" fill="#C3CFD9" width="37" xml:space="preserve" x="517.5" font-family="DIN Next, sans-serif" height="24"><tspan x="536" y="-380" text-anchor="middle" style="white-space:pre;">seed</tspan></text></g></g><g><g class="content"><g><g><g><g><g></g><text fill="#293845"><tspan x="737" y="-679.5" font-family="DIN Next, sans-serif" font-size="18" font-style="normal" font-weight="normal">ADDRESS</tspan></text></g></g></g></g></g></g><g><g><ellipse stroke="#730FC3" stroke-width="2" fill="#e3cff3" cx="717.5" cy="-684.5" rx="11" ry="11"></ellipse></g></g><g><g><g><rect x="358" y="-633" width="253" height="77" rx="3" ry="3" fill="#FFFFFF" filter="url(#fill-shadow)"></rect><g><rect x="358" y="-633" width="253" height="77" rx="3" ry="3" fill="#2C88D9"></rect><g class="content"><g><g><g><g><g></g><text fill="#FFFFFF"><tspan x="420.11474609375" y="-588" font-family="DIN Next, sans-serif" font-size="18" font-style="normal" font-weight="normal">“GLOBAL STATE”</tspan></text></g></g></g></g></g></g></g><g><g class="content"><g><g><g><g><g></g><text fill="#293845"><tspan x="358" y="-642.5" font-family="DIN Next, sans-serif" font-size="18" font-style="normal" font-weight="normal">STRING</tspan></text></g></g></g></g></g></g></g></g><g><g><g><g><rect width="240" height="104.5" x="1670" y="-175" stroke="#BD34D1" stroke-width="2" fill="#f2d6f6"></rect></g><g><g><g class="content"><g><g><g><g><g></g><text fill="#293845"><tspan x="1735" y="-97.5" font-family="DIN Next, sans-serif" font-size="27" font-style="normal" font-weight="normal">◎27 SOL</tspan></text></g></g></g></g></g></g></g></g><g><g class="content"><g><g><g><g><g></g><text fill="#293845"><tspan x="1687" y="-140.5" font-family="DIN Next, sans-serif" font-size="18" font-style="normal" font-weight="normal">Bob’s wallet</tspan></text></g></g></g></g></g></g><g><g><g transform="translate(1682 -125) rotate(0 18 18)"><svg id="sde967045-3991-43d7-879a-32cdea134310" width="36" height="36" viewBox="0 0 48 48" data-icon-name="single-02" data-icon-partition="g48-8" data-icon-color="#BD34D1"><style>#sde967045-3991-43d7-879a-32cdea134310 *[fill=&#x27;#444444&#x27;], #sde967045-3991-43d7-879a-32cdea134310 *[fill=&#x27;#444&#x27;] {fill:#BD34D1;}#sde967045-3991-43d7-879a-32cdea134310 *[stroke=&#x27;#444444&#x27;], #sde967045-3991-43d7-879a-32cdea134310 *[stroke=&#x27;#444&#x27;] {stroke:#BD34D1;}</style><g><path fill="#444444" d="M30,29H18c-7.168,0-13,5.832-13,13v2c0,0.435,0.281,0.82,0.695,0.953 C5.957,45.036,12.229,47,24,47s18.043-1.964,18.305-2.047C42.719,44.82,43,44.435,43,44v-2C43,34.832,37.168,29,30,29z"></path><path data-color="color-2" fill="#444444" d="M24,25c6.195,0,11-6.988,11-13c0-6.065-4.935-11-11-11S13,5.935,13,12C13,18.012,17.805,25,24,25z"></path></g></svg></g></g></g></g></g><g><g><g><g class="content"><g><g><g><g><g></g><text fill="#293845"><tspan x="1701" y="-192.5" font-family="DIN Next, sans-serif" font-size="18" font-style="normal" font-weight="normal">ADDRESS</tspan></text></g></g></g></g></g></g><g><g><ellipse stroke="#730FC3" stroke-width="2" fill="#e3cff3" cx="1681.5" cy="-197.5" rx="11" ry="11"></ellipse></g></g></g></g><g><g class="content"><g><g><g><g><g></g><text fill="#293845"><tspan x="1592.5029296875" y="-1200" font-family="DIN Next, sans-serif" font-size="60" font-style="normal" font-weight="normal">Ping Counter Program</tspan></text></g></g></g></g></g></g><g><g><path d="M618,-756v244c0,0.33603 0.01105,0.66948 0.0328,1M677,-497h75c8.28426,0 15,6.71574 15,15v118" fill="none" stroke="#C3CFD9" stroke-linecap="round" stroke-linejoin="round" stroke-width="4"></path><polygon points="772.54095,-367.0921 767,-360 761.45905,-367.0921" fill="#C3CFD9" stroke="#C3CFD9" stroke-width="2" stroke-linecap="round" stroke-linejoin="round"></polygon><text y="-509" font-style="normal" font-size="18" font-weight="normal" fill="#C3CFD9" width="82" xml:space="preserve" x="591" font-family="DIN Next, sans-serif" height="24"><tspan x="632" y="-491" text-anchor="middle" style="white-space:pre;">programId</tspan></text></g></g><g><g><rect x="622" y="-348" width="233" height="36" rx="3" ry="3" fill="#ffffff"></rect><rect y="-348" rx="3" stroke="#C3CFD9" fill="none" stroke-linejoin="round" width="233" stroke-linecap="round" stroke-width="2" x="622" ry="3" height="36"></rect><g class="content"><g><g><g><g><g></g><text fill="#293845"><tspan x="652.46044921875" y="-323.5" font-family="DIN Next, sans-serif" font-size="18" font-style="normal" font-weight="normal">findProgramAddress()</tspan></text></g></g></g></g></g></g></g><g><g><line stroke="#C3CFD9" fill="none" stroke-linejoin="round" y1="-304" stroke-linecap="round" stroke-width="4" x1="738" y2="-292" x2="738"></line><polygon points="743.54095,-295.0921 738,-288 732.45905,-295.0921" fill="#C3CFD9" stroke="#C3CFD9" stroke-width="2" stroke-linecap="round" stroke-linejoin="round"></polygon></g></g></svg><g></g></g></svg>